HIERARCHY
ROOT Hips
{
	OFFSET 49.496101 -8.353525 93.081001
	CHANNELS 6 Xposition Yposition Zposition Xrotation Yrotation Zrotation
	JOINT spine
	{
		OFFSET 0.000000 -0.448574 7.800591
		CHANNELS 3 Xrotation Yrotation Zrotation
		JOINT spine1
		{
			OFFSET 0.000000 -0.000002 10.136398
			CHANNELS 3 Xrotation Yrotation Zrotation
			JOINT spine2
			{
				OFFSET 0.000000 -0.000002 9.712509
				CHANNELS 3 Xrotation Yrotation Zrotation
				JOINT Neck
				{
					OFFSET 0.000000 -1.188874 24.936096
					CHANNELS 3 Xrotation Yrotation Zrotation
					JOINT Head
					{
						OFFSET 0.000000 -0.000001 7.533844
						CHANNELS 3 Xrotation Yrotation Zrotation
						End Site
						{
							OFFSET 0.000000 6.014017 18.236099
						}
					}
				}
				JOINT RightShoulder
				{
					OFFSET -4.089649 0.569456 10.488800
					CHANNELS 3 Xrotation Yrotation Zrotation
					JOINT RightArm
					{
						OFFSET 0.000000 -0.000003 13.757004
						CHANNELS 3 Xrotation Yrotation Zrotation
						JOINT RightArmRoll
						{
							OFFSET 0.000000 -0.000001 6.944778
							CHANNELS 3 Xrotation Yrotation Zrotation
							JOINT RightForeArm
							{
								OFFSET 0.000000 -0.000003 20.227692
								CHANNELS 3 Xrotation Yrotation Zrotation
								JOINT RightForeArmRoll
								{
									OFFSET 0.000000 -0.000002 7.793121
									CHANNELS 3 Xrotation Yrotation Zrotation
									JOINT RightHand
									{
										OFFSET 0.000000 -0.000002 15.639099
										CHANNELS 3 Xrotation Yrotation Zrotation
										End Site
										{
											OFFSET 0.000000 0.000000 0.100006
										}
									}
								}
							}
						}
					}
				}
				JOINT LeftShoulder
				{
					OFFSET 4.089649 0.569456 10.488800
					CHANNELS 3 Xrotation Yrotation Zrotation
					JOINT LeftArm
					{
						OFFSET 0.000000 -0.000003 13.757004
						CHANNELS 3 Xrotation Yrotation Zrotation
						JOINT LeftArmRoll
						{
							OFFSET 0.000000 -0.000001 6.944778
							CHANNELS 3 Xrotation Yrotation Zrotation
							JOINT LeftForeArm
							{
								OFFSET 0.000000 -0.000003 20.227692
								CHANNELS 3 Xrotation Yrotation Zrotation
								JOINT LeftForeArmRoll
								{
									OFFSET 0.000000 -0.000002 7.793121
									CHANNELS 3 Xrotation Yrotation Zrotation
									JOINT LeftHand
									{
										OFFSET 0.000000 -0.000002 15.639099
										CHANNELS 3 Xrotation Yrotation Zrotation
										End Site
										{
											OFFSET 0.000000 0.000000 0.100006
										}
									}
								}
							}
						}
					}
				}
			}
		}
	}
	JOINT RightUpLeg
	{
		OFFSET -6.914162 1.063581 -1.267883
		CHANNELS 3 Xrotation Yrotation Zrotation
		JOINT RightUpLegRoll
		{
			OFFSET 0.000000 -0.000003 18.337799
			CHANNELS 3 Xrotation Yrotation Zrotation
			JOINT RightLeg
			{
				OFFSET 0.000000 0.000004 -22.708504
				CHANNELS 3 Xrotation Yrotation Zrotation
				JOINT RightLegRoll
				{
					OFFSET 0.000000 -0.000004 22.782799
					CHANNELS 3 Xrotation Yrotation Zrotation
					JOINT RightFoot
					{
						OFFSET 0.000000 -0.000003 18.962898
						CHANNELS 3 Xrotation Yrotation Zrotation
						JOINT RightToeBase
						{
							OFFSET 0.000000 -0.000003 15.852005
							CHANNELS 3 Xrotation Yrotation Zrotation
							End Site
							{
								OFFSET 0.006718 0.884892 7.677017
							}
						}
					}
				}
			}
		}
	}
	JOINT LeftUpLeg
	{
		OFFSET 6.914162 1.063581 -1.267883
		CHANNELS 3 Xrotation Yrotation Zrotation
		JOINT LeftUpLegRoll
		{
			OFFSET 0.000000 -0.000003 18.337898
			CHANNELS 3 Xrotation Yrotation Zrotation
			JOINT LeftLeg
			{
				OFFSET 0.000000 -0.000003 22.708405
				CHANNELS 3 Xrotation Yrotation Zrotation
				JOINT LeftLegRoll
				{
					OFFSET 0.000000 -0.000004 22.993393
					CHANNELS 3 Xrotation Yrotation Zrotation
					JOINT LeftFoot
					{
						OFFSET 0.000000 -0.000003 18.752197
						CHANNELS 3 Xrotation Yrotation Zrotation
						JOINT LeftToeBase
						{
							OFFSET 0.000000 -0.000002 15.852005
							CHANNELS 3 Xrotation Yrotation Zrotation
							End Site
							{
								OFFSET -0.030113 0.884892 7.677002
							}
						}
					}
				}
			}
		}
	}
}
MOTION
Frames: 8
Frame Time: 0.041667
51.928402 -6.774285 92.240791 -8.064012 5.506075 -18.702147 1.801596 -0.366064 -0.210973 7.604886 -0.720872 -0.406878 9.250009 -0.725693 -0.398217 17.391511 -11.429014 7.637699 -14.495451 18.039172 8.105837 -26.257318 -72.975647 -30.386053 -437.753080 -71.331921 -486.047080 -0.000001 0.000003 -0.000001 119.297259 14.524928 -38.008678 -0.000008 0.000004 -3.000458 -5.000303 -7.998782 0.000206 -2.471931 33.624103 -0.314938 -98.629106 170.685444 88.665479 0.000000 0.000000 0.000011 29.916594 -3.876385 0.941203 -0.000001 -0.000000 3.003669 -5.000238 7.999461 -0.000077 -0.134268 176.160018 -2.553434 -179.999991 0.000005 -1.343002 155.250309 0.146208 -0.978596 -0.000002 0.000000 0.703825 79.630703 6.620409 2.123780 25.487971 -7.355613 -0.000226 -11.330680 167.999431 0.206564 -0.000003 -0.000006 -0.948351 -21.009315 3.746199 1.344045 -0.000004 0.000002 -0.080324 66.757354 -5.716962 -5.150676 25.458082 7.355623 -0.001727 
51.931099 -6.756046 92.263191 -8.034667 5.544630 -18.838405 1.805608 -0.366204 -0.213825 7.612905 -0.720645 -0.412569 9.258019 -0.725534 -0.403911 17.351788 -11.633422 7.691787 -14.407760 18.183365 8.154547 -26.361477 -73.029803 -30.497560 -437.591533 -71.222153 -485.627761 -0.000000 0.000004 -0.000002 119.204805 14.461486 -37.826322 -0.000008 0.000005 -3.000460 -5.000301 -7.998782 0.000209 -2.505222 33.338246 -0.314973 -98.764925 170.991067 88.981744 0.000000 0.000000 0.000011 28.716106 -3.863257 0.960670 0.000001 0.000001 3.003691 -5.000235 7.999462 -0.000077 -0.174610 176.139008 -2.570834 -179.999991 0.000005 -1.342003 155.249011 0.150748 -0.977499 -0.000002 -0.000001 0.702092 79.599120 6.618808 2.132079 25.488388 -7.355617 -0.000001 -11.336938 167.953532 0.185769 -0.000001 -0.000005 -0.948099 -21.049741 3.743393 1.346974 -0.000003 0.000001 -0.079878 66.772175 -5.718152 -5.147950 25.458075 7.355622 -0.001728 
51.947201 -6.709957 92.239586 -8.001124 5.581009 -18.973121 1.808861 -0.366227 -0.216446 7.619368 -0.720678 -0.417790 9.264491 -0.725630 -0.409128 17.299906 -11.834087 7.743242 -14.310072 18.321352 8.200089 -26.462175 -73.079186 -30.605494 -437.477414 -71.107467 -485.251555 0.000002 0.000003 0.000001 119.116696 14.395327 -37.644974 -0.000007 0.000004 -3.000458 -5.000302 -7.998782 0.000209 -2.532261 33.060305 -0.322503 -98.894603 171.285449 89.280688 0.000001 -0.000000 0.000009 27.540185 -3.846524 0.970298 -0.000002 -0.000001 3.003699 -5.000237 7.999462 -0.000079 -0.219827 176.117042 -2.588753 -179.999991 0.000005 -1.340991 155.246798 0.156203 -0.976982 -0.000002 -0.000001 0.700570 79.568664 6.617424 2.139522 25.488278 -7.355619 0.000313 -11.346782 167.907770 0.164888 -0.000003 -0.000005 -0.947822 -21.087287 3.741741 1.349965 -0.000004 0.000002 -0.079377 66.784804 -5.718766 -5.146519 25.458077 7.355621 -0.001728 
51.954296 -6.700138 92.218689 -7.963777 5.614916 -19.105004 1.811499 -0.365891 -0.218657 7.624646 -0.720401 -0.422209 9.269770 -0.725407 -0.413554 17.232856 -12.037176 7.791232 -14.197723 18.456901 8.241493 -26.561692 -73.126252 -30.712130 -437.398812 -70.992856 -484.904035 -0.000001 0.000004 -0.000000 119.030909 14.323883 -37.461641 -0.000008 0.000005 -3.000462 -5.000303 -7.998782 0.000205 -2.552478 32.787005 -0.338620 -99.023372 171.566675 89.572446 0.000001 0.000000 0.000008 26.384374 -3.815119 0.972137 -0.000002 -0.000002 3.003706 -5.000236 7.999462 -0.000082 -0.270361 176.096046 -2.606513 -179.999991 0.000005 -1.339996 155.242086 0.161643 -0.975453 -0.000003 -0.000001 0.699335 79.540217 6.616555 2.145099 25.487674 -7.355617 0.000707 -11.361090 167.863169 0.144884 -0.000001 -0.000005 -0.947524 -21.123055 3.740674 1.352974 -0.000004 0.000001 -0.078835 66.795746 -5.718813 -5.146457 25.458077 7.355621 -0.001728 
51.973995 -6.715786 92.228592 -7.922970 5.646637 -19.234378 1.813575 -0.365279 -0.220520 7.628785 -0.719931 -0.425954 9.273909 -0.724982 -0.417302 17.152676 -12.241727 7.835990 -14.073107 18.590006 8.279183 -26.660096 -73.171195 -30.817619 -437.351383 -70.879018 -484.581814 -0.000003 0.000004 -0.000001 118.946897 14.249298 -37.274856 -0.000008 0.000005 -3.000449 -5.000302 -7.998782 0.000205 -2.566752 32.518425 -0.362062 -99.150127 171.835211 89.855243 0.000001 0.000000 0.000005 25.249212 -3.771433 0.968230 0.000004 -0.000002 3.003733 -5.000237 7.999461 -0.000078 -0.325571 176.076075 -2.624131 -179.999991 0.000005 -1.338999 155.235283 0.166174 -0.974338 -0.000002 -0.000000 0.698342 79.513688 6.616069 2.149106 25.486656 -7.355609 0.001177 -11.379293 167.818745 0.125694 -0.000003 -0.000005 -0.947202 -21.157228 3.740189 1.356015 -0.000004 0.000001 -0.078256 66.805022 -5.718288 -5.147770 25.458077 7.355622 -0.001729 
51.980598 -6.690167 92.247688 -7.879040 5.676451 -19.361580 1.815096 -0.364469 -0.222111 7.631825 -0.719380 -0.429148 9.276951 -0.724468 -0.420504 17.061831 -12.446555 7.877788 -13.938506 18.720480 8.313550 -26.756940 -73.213945 -30.921438 -437.331986 -70.766600 -484.283198 -0.000002 0.000004 -0.000000 118.865099 14.171205 -37.086578 -0.000008 0.000005 -3.000449 -5.000301 -7.998780 0.000207 -2.575960 32.254858 -0.391594 -99.273801 172.091370 90.127153 -0.000000 -0.000000 0.000009 24.135624 -3.718015 0.960476 0.000001 -0.000001 3.003742 -5.000235 7.999461 -0.000080 -0.384817 176.055093 -2.641645 -179.999991 0.000005 -1.337006 155.226882 0.170702 -0.973216 -0.000002 -0.000001 0.697548 79.488635 6.615984 2.151656 25.485248 -7.355617 0.001701 -11.401048 167.775469 0.106959 -0.000003 -0.000005 -0.946847 -21.190206 3.740269 1.359111 -0.000004 0.000002 -0.077637 66.812842 -5.717348 -5.150170 25.458075 7.355621 -0.001727 
51.978500 -6.674598 92.238083 -7.832331 5.704640 -19.486829 1.816096 -0.363549 -0.223486 7.633824 -0.718863 -0.431925 9.278937 -0.723986 -0.423286 16.962473 -12.650473 7.916895 -13.796448 18.848312 8.345081 -26.851897 -73.254435 -31.023252 -437.336138 -70.656217 -484.004745 -0.000001 0.000004 -0.000001 118.785596 14.090254 -36.896982 -0.000008 0.000005 -3.000452 -5.000302 -7.998782 0.000209 -2.580928 31.996363 -0.426026 -99.393391 172.335426 90.386625 0.000000 -0.000001 0.000009 23.044339 -3.657684 0.950500 0.000000 -0.000001 3.003752 -5.000234 7.999461 -0.000081 -0.447474 176.034124 -2.659071 -179.999991 0.000005 -1.335993 155.217374 0.175228 -0.972105 -0.000000 0.000000 0.696906 79.464852 6.616222 2.152962 25.483629 -7.355617 0.002297 -11.425820 167.731332 0.088808 -0.000004 -0.000005 -0.946451 -21.222002 3.740904 1.362264 -0.000004 0.000002 -0.076981 66.819543 -5.715967 -5.153535 25.458077 7.355621 -0.001728 
51.990200 -6.662071 92.240982 -7.783167 5.731498 -19.610554 1.816598 -0.362596 -0.224712 7.634814 -0.718498 -0.434411 9.279940 -0.723651 -0.425770 16.856845 -12.852291 7.953635 -13.649455 18.973489 8.374352 -26.944996 -73.292902 -31.123092 -437.360918 -70.548491 -483.744815 -0.000005 0.000003 0.000001 118.708210 14.007579 -36.707346 -0.000009 0.000004 -3.000447 -5.000302 -7.998780 0.000208 -2.582528 31.743250 -0.464161 -99.507612 172.567844 90.631522 0.000001 -0.000000 0.000006 21.976043 -3.593111 0.939737 -0.000000 0.000000 3.003770 -5.000236 7.999460 -0.000082 -0.512897 176.014166 -2.676448 -179.999991 0.000005 -1.334996 155.206978 0.178847 -0.971391 -0.000002 -0.000001 0.696379 79.442149 6.616658 2.153330 25.481715 -7.355615 0.002915 -11.453226 167.688275 0.070662 -0.000003 -0.000005 -0.946008 -21.252806 3.742083 1.365475 -0.000003 0.000002 -0.076293 66.825123 -5.714215 -5.157985 25.458075 7.355622 -0.001728 
